<svg xmlns="http://www.w3.org/2000/svg" xmlns:xlink="http://www.w3.org/1999/xlink" width="350" zoomAndPan="magnify" viewBox="0 0 262.5 74.999997" height="100" preserveAspectRatio="xMidYMid meet" version="1.0"><defs><g/><clipPath id="id1"><path d="M 16 36 L 67 36 L 67 61.707031 L 16 61.707031 Z M 16 36 " clip-rule="nonzero"/></clipPath><clipPath id="id2"><path d="M 13.292969 13.707031 L 68.042969 13.707031 L 68.042969 42 L 13.292969 42 Z M 13.292969 13.707031 " clip-rule="nonzero"/></clipPath></defs><g fill="#16176e" fill-opacity="1"><g transform="translate(98.790456, 32.871283)"><g><path d="M 11.457031 -2.214844 L 7.542969 -12.832031 L 6.128906 -12.832031 L 2.398438 -2.027344 C 2.070312 -1.085938 1.558594 -0.675781 0.203125 -0.574219 L 0.203125 0 C 1.703125 -0.0625 3.464844 -0.0625 4.980469 0 L 4.980469 -0.574219 C 3.648438 -0.675781 2.847656 -0.941406 3.117188 -1.722656 L 3.933594 -4.160156 L 8.238281 -4.160156 L 9.101562 -1.804688 C 9.410156 -0.984375 9.246094 -0.675781 7.871094 -0.574219 L 7.871094 0 C 9.714844 -0.0625 11.621094 -0.0625 13.46875 0 L 13.46875 -0.574219 C 12.03125 -0.675781 11.847656 -1.167969 11.457031 -2.214844 Z M 4.160156 -4.835938 L 5.984375 -10.332031 L 7.992188 -4.835938 Z M 4.160156 -4.835938 "/></g></g></g><g fill="#16176e" fill-opacity="1"><g transform="translate(113.506791, 32.871283)"><g><path d="M 9.632812 -12.359375 C 9.59375 -12.667969 9.550781 -12.730469 9.285156 -12.730469 L 0.554688 -12.730469 L 0.554688 -12.15625 C 1.660156 -12.074219 2.007812 -11.929688 2.007812 -11.335938 L 2.007812 -1.597656 C 2.007812 -0.882812 1.621094 -0.65625 0.511719 -0.574219 L 0.511719 0 C 2.273438 -0.0625 4.140625 -0.0625 5.902344 0 L 5.902344 -0.574219 C 4.816406 -0.65625 4.425781 -0.882812 4.425781 -1.597656 L 4.425781 -6.128906 L 6.867188 -6.128906 C 7.890625 -6.128906 8.15625 -5.617188 8.382812 -4.796875 L 8.894531 -4.796875 C 8.792969 -5.945312 8.792969 -7.011719 8.894531 -8.15625 L 8.382812 -8.15625 C 8.15625 -7.316406 7.890625 -6.847656 6.867188 -6.847656 L 4.425781 -6.847656 L 4.425781 -11.601562 C 4.425781 -11.929688 4.550781 -12.09375 4.878906 -12.09375 L 6.621094 -12.09375 C 8.035156 -12.09375 8.648438 -11.644531 9.183594 -10.496094 L 9.386719 -10.042969 L 9.941406 -10.042969 Z M 9.632812 -12.359375 "/></g></g></g><g fill="#16176e" fill-opacity="1"><g transform="translate(125.087239, 32.871283)"><g><path d="M 9.632812 -12.359375 C 9.59375 -12.667969 9.550781 -12.730469 9.285156 -12.730469 L 0.554688 -12.730469 L 0.554688 -12.15625 C 1.660156 -12.074219 2.007812 -11.929688 2.007812 -11.335938 L 2.007812 -1.597656 C 2.007812 -0.882812 1.621094 -0.65625 0.511719 -0.574219 L 0.511719 0 C 2.273438 -0.0625 4.140625 -0.0625 5.902344 0 L 5.902344 -0.574219 C 4.816406 -0.65625 4.425781 -0.882812 4.425781 -1.597656 L 4.425781 -6.128906 L 6.867188 -6.128906 C 7.890625 -6.128906 8.15625 -5.617188 8.382812 -4.796875 L 8.894531 -4.796875 C 8.792969 -5.945312 8.792969 -7.011719 8.894531 -8.15625 L 8.382812 -8.15625 C 8.15625 -7.316406 7.890625 -6.847656 6.867188 -6.847656 L 4.425781 -6.847656 L 4.425781 -11.601562 C 4.425781 -11.929688 4.550781 -12.09375 4.878906 -12.09375 L 6.621094 -12.09375 C 8.035156 -12.09375 8.648438 -11.644531 9.183594 -10.496094 L 9.386719 -10.042969 L 9.941406 -10.042969 Z M 9.632812 -12.359375 "/></g></g></g><g fill="#16176e" fill-opacity="1"><g transform="translate(136.667685, 32.871283)"><g><path d="M 6.601562 -13.058594 C 3.15625 -13.058594 0.71875 -10.25 0.71875 -6.4375 C 0.71875 -2.5 3.199219 0.285156 6.660156 0.285156 C 10.105469 0.285156 12.542969 -2.542969 12.542969 -6.332031 C 12.542969 -10.269531 10.0625 -13.058594 6.601562 -13.058594 Z M 6.929688 -0.429688 C 4.796875 -0.429688 3.28125 -3.257812 3.28125 -7.011719 C 3.28125 -10.84375 4.695312 -12.339844 6.273438 -12.339844 C 8.464844 -12.339844 9.980469 -9.53125 9.980469 -5.78125 C 9.980469 -1.945312 8.566406 -0.429688 6.929688 -0.429688 Z M 6.929688 -0.429688 "/></g></g></g><g fill="#16176e" fill-opacity="1"><g transform="translate(150.974106, 32.871283)"><g><path d="M 8.9375 -3.117188 L 7.214844 -5.535156 C 9.980469 -6.332031 11.070312 -7.625 11.070312 -9.347656 C 11.070312 -11.128906 9.941406 -12.730469 5.617188 -12.730469 C 4.425781 -12.730469 2.480469 -12.648438 0.59375 -12.730469 L 0.59375 -12.15625 C 1.660156 -12.074219 1.96875 -11.746094 1.96875 -11.152344 L 1.96875 -1.597656 C 1.96875 -0.882812 1.621094 -0.65625 0.511719 -0.574219 L 0.511719 0 C 2.273438 -0.0625 4.058594 -0.0625 5.820312 0 L 5.820312 -0.574219 C 4.734375 -0.65625 4.386719 -0.882812 4.386719 -1.597656 L 4.386719 -4.980469 L 4.898438 -5.0625 C 4.960938 -5.0625 5.023438 -5.082031 5.0625 -5.082031 L 6.929688 -2.4375 C 8.425781 -0.285156 10.0625 0.183594 11.683594 0.164062 L 12.113281 -0.492188 C 11.191406 -0.574219 10.042969 -1.539062 8.9375 -3.117188 Z M 4.386719 -12.09375 L 5.964844 -12.09375 C 7.871094 -12.09375 8.691406 -10.882812 8.691406 -9.246094 C 8.691406 -7.460938 7.789062 -6.109375 4.898438 -5.738281 L 4.386719 -5.679688 Z M 4.386719 -12.09375 "/></g></g></g><g fill="#16176e" fill-opacity="1"><g transform="translate(164.440184, 32.871283)"><g><path d="M 5.492188 -12.730469 C 3.792969 -12.730469 2.480469 -12.648438 0.59375 -12.730469 L 0.59375 -12.15625 C 1.660156 -12.074219 1.96875 -11.703125 1.96875 -11.027344 L 1.96875 -1.640625 C 1.96875 -0.984375 1.539062 -0.800781 0.511719 -0.574219 L 0.511719 0 C 1.515625 -0.183594 2.253906 -0.328125 3.320312 -0.328125 C 4.46875 -0.328125 5.515625 0 6.578125 0 C 8.835938 0 12.339844 -1.539062 12.339844 -6.4375 C 12.339844 -10.863281 9.550781 -12.730469 5.492188 -12.730469 Z M 5.902344 -0.675781 C 5.207031 -0.675781 4.386719 -0.820312 4.386719 -1.761719 L 4.386719 -12.050781 C 4.859375 -12.09375 5.226562 -12.09375 5.433594 -12.09375 C 8.445312 -12.09375 9.695312 -9.714844 9.695312 -6.25 C 9.695312 -3.09375 8.792969 -0.675781 5.902344 -0.675781 Z M 5.902344 -0.675781 "/></g></g></g><g fill="#16176e" fill-opacity="1"><g transform="translate(178.644119, 32.871283)"><g><path d="M 11.457031 -2.214844 L 7.542969 -12.832031 L 6.128906 -12.832031 L 2.398438 -2.027344 C 2.070312 -1.085938 1.558594 -0.675781 0.203125 -0.574219 L 0.203125 0 C 1.703125 -0.0625 3.464844 -0.0625 4.980469 0 L 4.980469 -0.574219 C 3.648438 -0.675781 2.847656 -0.941406 3.117188 -1.722656 L 3.933594 -4.160156 L 8.238281 -4.160156 L 9.101562 -1.804688 C 9.410156 -0.984375 9.246094 -0.675781 7.871094 -0.574219 L 7.871094 0 C 9.714844 -0.0625 11.621094 -0.0625 13.46875 0 L 13.46875 -0.574219 C 12.03125 -0.675781 11.847656 -1.167969 11.457031 -2.214844 Z M 4.160156 -4.835938 L 5.984375 -10.332031 L 7.992188 -4.835938 Z M 4.160156 -4.835938 "/></g></g></g><g fill="#16176e" fill-opacity="1"><g transform="translate(193.360452, 32.871283)"><g><path d="M 8.21875 -7.011719 C 10.003906 -7.6875 10.617188 -8.546875 10.617188 -9.695312 C 10.617188 -11.152344 9.59375 -12.730469 5.328125 -12.730469 C 4.140625 -12.730469 2.480469 -12.648438 0.59375 -12.730469 L 0.59375 -12.15625 C 1.660156 -12.074219 1.96875 -11.703125 1.96875 -11.027344 L 1.96875 -1.597656 C 1.96875 -0.882812 1.621094 -0.65625 0.511719 -0.574219 L 0.511719 0 L 6.457031 0 C 10.105469 0 12.011719 -1.351562 12.011719 -3.546875 C 12.011719 -5.371094 10.699219 -6.621094 8.21875 -7.011719 Z M 4.386719 -12.074219 C 4.714844 -12.09375 5 -12.09375 5.65625 -12.09375 C 7.542969 -12.09375 8.261719 -11.109375 8.261719 -9.65625 C 8.261719 -8.035156 7.378906 -7.277344 4.386719 -6.824219 Z M 6.375 -0.675781 L 5.535156 -0.675781 C 4.550781 -0.675781 4.386719 -0.902344 4.386719 -1.621094 L 4.386719 -6.128906 L 6.539062 -6.476562 C 8.484375 -6.476562 9.53125 -5.226562 9.53125 -3.464844 C 9.53125 -1.703125 8.527344 -0.675781 6.375 -0.675781 Z M 6.375 -0.675781 "/></g></g></g><g fill="#16176e" fill-opacity="1"><g transform="translate(206.826536, 32.871283)"><g><path d="M 9.695312 -3.363281 L 8.976562 -2.007812 C 8.445312 -1.046875 7.828125 -0.675781 6.292969 -0.675781 L 5.164062 -0.675781 C 4.550781 -0.675781 4.425781 -0.882812 4.425781 -1.597656 L 4.425781 -11.128906 C 4.425781 -11.847656 4.816406 -12.074219 5.902344 -12.15625 L 5.902344 -12.730469 C 4.140625 -12.667969 2.273438 -12.667969 0.511719 -12.730469 L 0.511719 -12.15625 C 1.621094 -12.074219 2.007812 -11.847656 2.007812 -11.128906 L 2.007812 -1.597656 C 2.007812 -0.882812 1.660156 -0.65625 0.554688 -0.574219 L 0.554688 0 C 3.628906 -0.0625 6.457031 -0.0625 9.65625 0 C 9.714844 -1.105469 9.878906 -2.171875 10.289062 -3.363281 Z M 9.695312 -3.363281 "/></g></g></g><g fill="#16176e" fill-opacity="1"><g transform="translate(218.570954, 32.871283)"><g><path d="M 9.65625 -3.363281 L 8.9375 -2.007812 C 8.402344 -1.046875 7.789062 -0.675781 6.25 -0.675781 L 5.125 -0.675781 C 4.507812 -0.675781 4.386719 -0.882812 4.386719 -1.597656 L 4.386719 -6.191406 L 6.824219 -6.191406 C 7.851562 -6.191406 8.117188 -5.679688 8.34375 -4.835938 L 8.855469 -4.835938 C 8.753906 -6.003906 8.753906 -7.070312 8.855469 -8.21875 L 8.34375 -8.21875 C 8.117188 -7.378906 7.851562 -6.886719 6.824219 -6.886719 L 4.386719 -6.886719 L 4.386719 -11.601562 C 4.386719 -11.929688 4.507812 -12.09375 4.835938 -12.09375 L 6.578125 -12.09375 C 7.992188 -12.09375 8.609375 -11.644531 9.140625 -10.496094 L 9.347656 -10.042969 L 9.898438 -10.042969 L 9.59375 -12.359375 C 9.550781 -12.667969 9.511719 -12.730469 9.246094 -12.730469 L 0.511719 -12.730469 L 0.511719 -12.15625 C 1.621094 -12.074219 1.96875 -11.929688 1.96875 -11.335938 L 1.96875 -1.597656 C 1.96875 -0.882812 1.621094 -0.65625 0.511719 -0.574219 L 0.511719 0 C 3.585938 -0.0625 6.414062 -0.0625 9.613281 0 C 9.675781 -1.105469 9.839844 -2.171875 10.25 -3.363281 Z M 9.65625 -3.363281 "/></g></g></g><path stroke-linecap="round" transform="matrix(0.751517, 0, 0, 1, 74.29188, 38.071288)" fill="none" stroke-linejoin="miter" d="M 0.50044 -0.000975563 L 239.028515 -0.000975563 " stroke="#bf8f88" stroke-width="1" stroke-opacity="1" stroke-miterlimit="4"/><g clip-path="url(#id1)"><path fill="#00a8a8" d="M 43.0625 55.882812 L 38.59375 36.441406 L 37.097656 41.699219 L 16.5625 41.699219 C 18.425781 44.726562 21.039062 47.515625 24.304688 50.539062 C 29.625 55.460938 34.292969 58.34375 40.679688 61.722656 C 47.070312 58.34375 51.734375 55.460938 57.058594 50.539062 C 61.722656 46.21875 65.074219 42.378906 66.769531 37.628906 L 47.53125 37.628906 L 43.0625 55.882812 " fill-opacity="1" fill-rule="nonzero"/></g><g clip-path="url(#id2)"><path fill="#16176e" d="M 38.9375 22.867188 L 43.164062 41.257812 L 44.886719 34.238281 L 67.660156 34.238281 C 67.894531 32.894531 68.023438 31.476562 68.023438 29.945312 C 68.023438 20.980469 62.722656 13.710938 53.800781 13.710938 C 48.738281 13.710938 43.910156 17.054688 40.679688 20.550781 C 37.449219 17.054688 32.625 13.710938 27.5625 13.710938 C 18.640625 13.710938 13.339844 20.980469 13.339844 29.945312 C 13.339844 33.113281 13.867188 35.828125 14.851562 38.308594 L 34.550781 38.308594 L 38.9375 22.867188 " fill-opacity="1" fill-rule="nonzero"/></g><g fill="#00a8a8" fill-opacity="1"><g transform="translate(74.010794, 50.346281)"><g><path d="M 7.070312 -6.519531 L 7.070312 -6.828125 C 6.125 -6.792969 5.125 -6.792969 4.179688 -6.828125 L 4.179688 -6.519531 C 4.773438 -6.476562 4.980469 -6.355469 4.980469 -5.96875 L 4.980469 -3.605469 L 2.375 -3.605469 L 2.375 -5.96875 C 2.375 -6.355469 2.582031 -6.476562 3.167969 -6.519531 L 3.167969 -6.828125 C 2.222656 -6.792969 1.21875 -6.792969 0.273438 -6.828125 L 0.273438 -6.519531 C 0.867188 -6.476562 1.078125 -6.355469 1.078125 -5.96875 L 1.078125 -0.859375 C 1.078125 -0.472656 0.867188 -0.351562 0.273438 -0.308594 L 0.273438 0 C 1.21875 -0.03125 2.222656 -0.03125 3.167969 0 L 3.167969 -0.308594 C 2.582031 -0.351562 2.375 -0.472656 2.375 -0.859375 L 2.375 -3.234375 L 4.980469 -3.234375 L 4.980469 -0.859375 C 4.980469 -0.472656 4.773438 -0.351562 4.179688 -0.308594 L 4.179688 0 C 5.125 -0.03125 6.125 -0.03125 7.070312 0 L 7.070312 -0.308594 C 6.488281 -0.351562 6.277344 -0.472656 6.277344 -0.859375 L 6.277344 -5.96875 C 6.277344 -6.355469 6.488281 -6.476562 7.070312 -6.519531 Z M 7.070312 -6.519531 "/></g></g></g><g fill="#00a8a8" fill-opacity="1"><g transform="translate(83.729602, 50.346281)"><g><path d="M 5.179688 -1.804688 L 4.792969 -1.078125 C 4.507812 -0.5625 4.179688 -0.363281 3.351562 -0.363281 L 2.75 -0.363281 C 2.417969 -0.363281 2.351562 -0.472656 2.351562 -0.859375 L 2.351562 -3.320312 L 3.660156 -3.320312 C 4.210938 -3.320312 4.355469 -3.046875 4.476562 -2.59375 L 4.75 -2.59375 C 4.695312 -3.222656 4.695312 -3.792969 4.75 -4.410156 L 4.476562 -4.410156 C 4.355469 -3.957031 4.210938 -3.695312 3.660156 -3.695312 L 2.351562 -3.695312 L 2.351562 -6.222656 C 2.351562 -6.398438 2.417969 -6.488281 2.59375 -6.488281 L 3.53125 -6.488281 C 4.289062 -6.488281 4.617188 -6.246094 4.902344 -5.628906 L 5.015625 -5.386719 L 5.3125 -5.386719 L 5.144531 -6.628906 C 5.125 -6.792969 5.101562 -6.828125 4.957031 -6.828125 L 0.273438 -6.828125 L 0.273438 -6.519531 C 0.867188 -6.476562 1.054688 -6.398438 1.054688 -6.082031 L 1.054688 -0.859375 C 1.054688 -0.472656 0.867188 -0.351562 0.273438 -0.308594 L 0.273438 0 C 1.925781 -0.03125 3.441406 -0.03125 5.15625 0 C 5.191406 -0.59375 5.277344 -1.164062 5.496094 -1.804688 Z M 5.179688 -1.804688 "/></g></g></g><g fill="#00a8a8" fill-opacity="1"><g transform="translate(91.931484, 50.346281)"><g><path d="M 6.144531 -1.1875 L 4.046875 -6.882812 L 3.289062 -6.882812 L 1.285156 -1.089844 C 1.109375 -0.582031 0.835938 -0.363281 0.109375 -0.308594 L 0.109375 0 C 0.914062 -0.03125 1.859375 -0.03125 2.671875 0 L 2.671875 -0.308594 C 1.957031 -0.363281 1.527344 -0.503906 1.671875 -0.921875 L 2.109375 -2.230469 L 4.421875 -2.230469 L 4.882812 -0.96875 C 5.046875 -0.527344 4.957031 -0.363281 4.222656 -0.308594 L 4.222656 0 C 5.210938 -0.03125 6.234375 -0.03125 7.222656 0 L 7.222656 -0.308594 C 6.453125 -0.363281 6.355469 -0.625 6.144531 -1.1875 Z M 2.230469 -2.59375 L 3.210938 -5.542969 L 4.289062 -2.59375 Z M 2.230469 -2.59375 "/></g></g></g><g fill="#00a8a8" fill-opacity="1"><g transform="translate(101.639306, 50.346281)"><g><path d="M 5.199219 -1.804688 L 4.816406 -1.078125 C 4.53125 -0.5625 4.199219 -0.363281 3.375 -0.363281 L 2.769531 -0.363281 C 2.441406 -0.363281 2.375 -0.472656 2.375 -0.859375 L 2.375 -5.96875 C 2.375 -6.355469 2.582031 -6.476562 3.167969 -6.519531 L 3.167969 -6.828125 C 2.222656 -6.792969 1.21875 -6.792969 0.273438 -6.828125 L 0.273438 -6.519531 C 0.867188 -6.476562 1.078125 -6.355469 1.078125 -5.96875 L 1.078125 -0.859375 C 1.078125 -0.472656 0.890625 -0.351562 0.296875 -0.308594 L 0.296875 0 C 1.945312 -0.03125 3.464844 -0.03125 5.179688 0 C 5.210938 -0.59375 5.300781 -1.164062 5.519531 -1.804688 Z M 5.199219 -1.804688 "/></g></g></g><g fill="#00a8a8" fill-opacity="1"><g transform="translate(109.753252, 50.346281)"><g><path d="M 5.574219 -6.914062 C 5.265625 -6.839844 5.015625 -6.828125 4.453125 -6.828125 L 1.957031 -6.828125 C 1.394531 -6.828125 1.144531 -6.839844 0.835938 -6.914062 L 0.550781 -6.914062 L 0.164062 -5.421875 L 0.472656 -5.421875 C 0.890625 -6.277344 1.078125 -6.441406 1.617188 -6.441406 L 2.363281 -6.441406 L 2.363281 -0.859375 C 2.363281 -0.472656 2.15625 -0.351562 1.453125 -0.308594 L 1.453125 0 C 2.507812 -0.03125 3.507812 -0.03125 4.574219 0 L 4.574219 -0.308594 C 3.871094 -0.351562 3.660156 -0.472656 3.660156 -0.859375 L 3.660156 -6.441406 L 4.605469 -6.441406 C 5.035156 -6.441406 5.253906 -6.222656 5.15625 -5.421875 L 5.464844 -5.421875 L 5.859375 -6.914062 Z M 5.574219 -6.914062 "/></g></g></g><g fill="#00a8a8" fill-opacity="1"><g transform="translate(118.153002, 50.346281)"><g><path d="M 7.070312 -6.519531 L 7.070312 -6.828125 C 6.125 -6.792969 5.125 -6.792969 4.179688 -6.828125 L 4.179688 -6.519531 C 4.773438 -6.476562 4.980469 -6.355469 4.980469 -5.96875 L 4.980469 -3.605469 L 2.375 -3.605469 L 2.375 -5.96875 C 2.375 -6.355469 2.582031 -6.476562 3.167969 -6.519531 L 3.167969 -6.828125 C 2.222656 -6.792969 1.21875 -6.792969 0.273438 -6.828125 L 0.273438 -6.519531 C 0.867188 -6.476562 1.078125 -6.355469 1.078125 -5.96875 L 1.078125 -0.859375 C 1.078125 -0.472656 0.867188 -0.351562 0.273438 -0.308594 L 0.273438 0 C 1.21875 -0.03125 2.222656 -0.03125 3.167969 0 L 3.167969 -0.308594 C 2.582031 -0.351562 2.375 -0.472656 2.375 -0.859375 L 2.375 -3.234375 L 4.980469 -3.234375 L 4.980469 -0.859375 C 4.980469 -0.472656 4.773438 -0.351562 4.179688 -0.308594 L 4.179688 0 C 5.125 -0.03125 6.125 -0.03125 7.070312 0 L 7.070312 -0.308594 C 6.488281 -0.351562 6.277344 -0.472656 6.277344 -0.859375 L 6.277344 -5.96875 C 6.277344 -6.355469 6.488281 -6.476562 7.070312 -6.519531 Z M 7.070312 -6.519531 "/></g></g></g><g fill="#00a8a8" fill-opacity="1"><g transform="translate(127.87181, 50.346281)"><g/></g></g><g fill="#00a8a8" fill-opacity="1"><g transform="translate(132.6661, 50.346281)"><g><path d="M 5.914062 -1.847656 C 5.542969 -0.738281 4.804688 -0.285156 4.011719 -0.285156 C 2.5625 -0.285156 1.757812 -1.769531 1.757812 -3.792969 C 1.757812 -5.816406 2.539062 -6.609375 3.59375 -6.609375 C 4.539062 -6.609375 5.191406 -5.960938 5.628906 -4.925781 L 6.222656 -4.925781 C 5.949219 -5.585938 5.839844 -6.191406 5.738281 -6.816406 C 5.53125 -6.773438 5.429688 -6.761719 5.289062 -6.761719 C 4.640625 -6.761719 4.398438 -7.003906 3.628906 -7.003906 C 1.703125 -7.003906 0.386719 -5.519531 0.386719 -3.464844 C 0.386719 -1.375 1.738281 0.152344 3.726562 0.152344 C 5.375 0.152344 6.113281 -0.878906 6.367188 -1.847656 Z M 5.914062 -1.847656 "/></g></g></g><g fill="#00a8a8" fill-opacity="1"><g transform="translate(141.626451, 50.346281)"><g><path d="M 3.539062 -7.003906 C 1.691406 -7.003906 0.386719 -5.496094 0.386719 -3.453125 C 0.386719 -1.339844 1.714844 0.152344 3.574219 0.152344 C 5.421875 0.152344 6.730469 -1.363281 6.730469 -3.398438 C 6.730469 -5.507812 5.398438 -7.003906 3.539062 -7.003906 Z M 3.714844 -0.230469 C 2.574219 -0.230469 1.757812 -1.75 1.757812 -3.761719 C 1.757812 -5.816406 2.519531 -6.617188 3.363281 -6.617188 C 4.539062 -6.617188 5.355469 -5.113281 5.355469 -3.101562 C 5.355469 -1.042969 4.597656 -0.230469 3.714844 -0.230469 Z M 3.714844 -0.230469 "/></g></g></g><g fill="#00a8a8" fill-opacity="1"><g transform="translate(151.114432, 50.346281)"><g><path d="M 4.660156 -6.828125 L 4.660156 -6.519531 C 5.367188 -6.464844 5.792969 -6.320312 5.628906 -5.804688 L 4.125 -1.285156 L 2.441406 -5.871094 C 2.277344 -6.3125 2.363281 -6.464844 3.101562 -6.519531 L 3.101562 -6.828125 C 2.121094 -6.792969 1.097656 -6.792969 0.109375 -6.828125 L 0.109375 -6.519531 C 0.867188 -6.464844 0.980469 -6.210938 1.1875 -5.640625 L 3.289062 0.0546875 L 4.046875 0.0546875 L 6.003906 -5.640625 C 6.210938 -6.246094 6.488281 -6.464844 7.222656 -6.519531 L 7.222656 -6.828125 C 6.421875 -6.792969 5.476562 -6.792969 4.660156 -6.828125 Z M 4.660156 -6.828125 "/></g></g></g><g fill="#00a8a8" fill-opacity="1"><g transform="translate(160.822253, 50.346281)"><g><path d="M 5.179688 -1.804688 L 4.792969 -1.078125 C 4.507812 -0.5625 4.179688 -0.363281 3.351562 -0.363281 L 2.75 -0.363281 C 2.417969 -0.363281 2.351562 -0.472656 2.351562 -0.859375 L 2.351562 -3.320312 L 3.660156 -3.320312 C 4.210938 -3.320312 4.355469 -3.046875 4.476562 -2.59375 L 4.75 -2.59375 C 4.695312 -3.222656 4.695312 -3.792969 4.75 -4.410156 L 4.476562 -4.410156 C 4.355469 -3.957031 4.210938 -3.695312 3.660156 -3.695312 L 2.351562 -3.695312 L 2.351562 -6.222656 C 2.351562 -6.398438 2.417969 -6.488281 2.59375 -6.488281 L 3.53125 -6.488281 C 4.289062 -6.488281 4.617188 -6.246094 4.902344 -5.628906 L 5.015625 -5.386719 L 5.3125 -5.386719 L 5.144531 -6.628906 C 5.125 -6.792969 5.101562 -6.828125 4.957031 -6.828125 L 0.273438 -6.828125 L 0.273438 -6.519531 C 0.867188 -6.476562 1.054688 -6.398438 1.054688 -6.082031 L 1.054688 -0.859375 C 1.054688 -0.472656 0.867188 -0.351562 0.273438 -0.308594 L 0.273438 0 C 1.925781 -0.03125 3.441406 -0.03125 5.15625 0 C 5.191406 -0.59375 5.277344 -1.164062 5.496094 -1.804688 Z M 5.179688 -1.804688 "/></g></g></g><g fill="#00a8a8" fill-opacity="1"><g transform="translate(169.024135, 50.346281)"><g><path d="M 4.792969 -1.671875 L 3.871094 -2.96875 C 5.355469 -3.398438 5.9375 -4.089844 5.9375 -5.015625 C 5.9375 -5.96875 5.332031 -6.828125 3.011719 -6.828125 C 2.375 -6.828125 1.332031 -6.785156 0.320312 -6.828125 L 0.320312 -6.519531 C 0.890625 -6.476562 1.054688 -6.300781 1.054688 -5.980469 L 1.054688 -0.859375 C 1.054688 -0.472656 0.867188 -0.351562 0.273438 -0.308594 L 0.273438 0 C 1.21875 -0.03125 2.175781 -0.03125 3.121094 0 L 3.121094 -0.308594 C 2.539062 -0.351562 2.351562 -0.472656 2.351562 -0.859375 L 2.351562 -2.671875 L 2.628906 -2.714844 C 2.660156 -2.714844 2.695312 -2.726562 2.714844 -2.726562 L 3.714844 -1.308594 C 4.519531 -0.152344 5.398438 0.0976562 6.265625 0.0898438 L 6.496094 -0.265625 C 6.003906 -0.308594 5.386719 -0.824219 4.792969 -1.671875 Z M 2.351562 -6.488281 L 3.199219 -6.488281 C 4.222656 -6.488281 4.660156 -5.839844 4.660156 -4.957031 C 4.660156 -4.003906 4.179688 -3.277344 2.628906 -3.078125 L 2.351562 -3.046875 Z M 2.351562 -6.488281 "/></g></g></g><g fill="#00a8a8" fill-opacity="1"><g transform="translate(178.061425, 50.346281)"><g><path d="M 6.144531 -1.1875 L 4.046875 -6.882812 L 3.289062 -6.882812 L 1.285156 -1.089844 C 1.109375 -0.582031 0.835938 -0.363281 0.109375 -0.308594 L 0.109375 0 C 0.914062 -0.03125 1.859375 -0.03125 2.671875 0 L 2.671875 -0.308594 C 1.957031 -0.363281 1.527344 -0.503906 1.671875 -0.921875 L 2.109375 -2.230469 L 4.421875 -2.230469 L 4.882812 -0.96875 C 5.046875 -0.527344 4.957031 -0.363281 4.222656 -0.308594 L 4.222656 0 C 5.210938 -0.03125 6.234375 -0.03125 7.222656 0 L 7.222656 -0.308594 C 6.453125 -0.363281 6.355469 -0.625 6.144531 -1.1875 Z M 2.230469 -2.59375 L 3.210938 -5.542969 L 4.289062 -2.59375 Z M 2.230469 -2.59375 "/></g></g></g><g fill="#00a8a8" fill-opacity="1"><g transform="translate(187.76924, 50.346281)"><g><path d="M 4.222656 -3.242188 L 4.222656 -2.925781 L 4.429688 -2.902344 C 5.003906 -2.847656 5.113281 -2.683594 5.113281 -1.871094 C 5.113281 -0.746094 4.882812 -0.265625 4.035156 -0.265625 C 2.550781 -0.265625 1.757812 -1.75 1.757812 -3.792969 C 1.757812 -5.816406 2.539062 -6.609375 3.59375 -6.609375 C 4.539062 -6.609375 5.191406 -5.960938 5.628906 -4.925781 L 6.222656 -4.925781 C 5.949219 -5.585938 5.839844 -6.191406 5.738281 -6.816406 C 5.53125 -6.773438 5.429688 -6.761719 5.289062 -6.761719 C 4.640625 -6.761719 4.398438 -7.003906 3.628906 -7.003906 C 1.703125 -7.003906 0.386719 -5.519531 0.386719 -3.464844 C 0.386719 -1.339844 1.691406 0.152344 3.738281 0.152344 C 4.761719 0.152344 5.089844 -0.207031 6.035156 -0.207031 C 6.234375 -0.207031 6.441406 -0.199219 6.652344 -0.164062 L 6.652344 -0.503906 C 6.398438 -0.59375 6.277344 -0.980469 6.277344 -1.628906 C 6.277344 -2.296875 6.246094 -2.816406 6.707031 -2.878906 L 6.960938 -2.925781 L 6.960938 -3.242188 C 6.082031 -3.222656 5.125 -3.222656 4.222656 -3.242188 Z M 4.222656 -3.242188 "/></g></g></g><g fill="#00a8a8" fill-opacity="1"><g transform="translate(197.323179, 50.346281)"><g><path d="M 5.179688 -1.804688 L 4.792969 -1.078125 C 4.507812 -0.5625 4.179688 -0.363281 3.351562 -0.363281 L 2.75 -0.363281 C 2.417969 -0.363281 2.351562 -0.472656 2.351562 -0.859375 L 2.351562 -3.320312 L 3.660156 -3.320312 C 4.210938 -3.320312 4.355469 -3.046875 4.476562 -2.59375 L 4.75 -2.59375 C 4.695312 -3.222656 4.695312 -3.792969 4.75 -4.410156 L 4.476562 -4.410156 C 4.355469 -3.957031 4.210938 -3.695312 3.660156 -3.695312 L 2.351562 -3.695312 L 2.351562 -6.222656 C 2.351562 -6.398438 2.417969 -6.488281 2.59375 -6.488281 L 3.53125 -6.488281 C 4.289062 -6.488281 4.617188 -6.246094 4.902344 -5.628906 L 5.015625 -5.386719 L 5.3125 -5.386719 L 5.144531 -6.628906 C 5.125 -6.792969 5.101562 -6.828125 4.957031 -6.828125 L 0.273438 -6.828125 L 0.273438 -6.519531 C 0.867188 -6.476562 1.054688 -6.398438 1.054688 -6.082031 L 1.054688 -0.859375 C 1.054688 -0.472656 0.867188 -0.351562 0.273438 -0.308594 L 0.273438 0 C 1.925781 -0.03125 3.441406 -0.03125 5.15625 0 C 5.191406 -0.59375 5.277344 -1.164062 5.496094 -1.804688 Z M 5.179688 -1.804688 "/></g></g></g><g fill="#00a8a8" fill-opacity="1"><g transform="translate(205.525067, 50.346281)"><g/></g></g><g fill="#00a8a8" fill-opacity="1"><g transform="translate(210.319363, 50.346281)"><g><path d="M 5.574219 -6.914062 C 5.265625 -6.839844 5.015625 -6.828125 4.453125 -6.828125 L 1.957031 -6.828125 C 1.394531 -6.828125 1.144531 -6.839844 0.835938 -6.914062 L 0.550781 -6.914062 L 0.164062 -5.421875 L 0.472656 -5.421875 C 0.890625 -6.277344 1.078125 -6.441406 1.617188 -6.441406 L 2.363281 -6.441406 L 2.363281 -0.859375 C 2.363281 -0.472656 2.15625 -0.351562 1.453125 -0.308594 L 1.453125 0 C 2.507812 -0.03125 3.507812 -0.03125 4.574219 0 L 4.574219 -0.308594 C 3.871094 -0.351562 3.660156 -0.472656 3.660156 -0.859375 L 3.660156 -6.441406 L 4.605469 -6.441406 C 5.035156 -6.441406 5.253906 -6.222656 5.15625 -5.421875 L 5.464844 -5.421875 L 5.859375 -6.914062 Z M 5.574219 -6.914062 "/></g></g></g><g fill="#00a8a8" fill-opacity="1"><g transform="translate(218.719119, 50.346281)"><g><path d="M 3.539062 -7.003906 C 1.691406 -7.003906 0.386719 -5.496094 0.386719 -3.453125 C 0.386719 -1.339844 1.714844 0.152344 3.574219 0.152344 C 5.421875 0.152344 6.730469 -1.363281 6.730469 -3.398438 C 6.730469 -5.507812 5.398438 -7.003906 3.539062 -7.003906 Z M 3.714844 -0.230469 C 2.574219 -0.230469 1.757812 -1.75 1.757812 -3.761719 C 1.757812 -5.816406 2.519531 -6.617188 3.363281 -6.617188 C 4.539062 -6.617188 5.355469 -5.113281 5.355469 -3.101562 C 5.355469 -1.042969 4.597656 -0.230469 3.714844 -0.230469 Z M 3.714844 -0.230469 "/></g></g></g><g fill="#00a8a8" fill-opacity="1"><g transform="translate(228.207094, 50.346281)"><g><path d="M 2.945312 -6.828125 C 2.035156 -6.828125 1.332031 -6.785156 0.320312 -6.828125 L 0.320312 -6.519531 C 0.890625 -6.476562 1.054688 -6.277344 1.054688 -5.914062 L 1.054688 -0.878906 C 1.054688 -0.527344 0.824219 -0.429688 0.273438 -0.308594 L 0.273438 0 C 0.8125 -0.0976562 1.210938 -0.175781 1.78125 -0.175781 C 2.398438 -0.175781 2.957031 0 3.53125 0 C 4.738281 0 6.617188 -0.824219 6.617188 -3.453125 C 6.617188 -5.828125 5.125 -6.828125 2.945312 -6.828125 Z M 3.167969 -0.363281 C 2.792969 -0.363281 2.351562 -0.441406 2.351562 -0.945312 L 2.351562 -6.464844 C 2.605469 -6.488281 2.804688 -6.488281 2.914062 -6.488281 C 4.53125 -6.488281 5.199219 -5.210938 5.199219 -3.351562 C 5.199219 -1.660156 4.71875 -0.363281 3.167969 -0.363281 Z M 3.167969 -0.363281 "/></g></g></g><g fill="#00a8a8" fill-opacity="1"><g transform="translate(237.640114, 50.346281)"><g><path d="M 6.144531 -1.1875 L 4.046875 -6.882812 L 3.289062 -6.882812 L 1.285156 -1.089844 C 1.109375 -0.582031 0.835938 -0.363281 0.109375 -0.308594 L 0.109375 0 C 0.914062 -0.03125 1.859375 -0.03125 2.671875 0 L 2.671875 -0.308594 C 1.957031 -0.363281 1.527344 -0.503906 1.671875 -0.921875 L 2.109375 -2.230469 L 4.421875 -2.230469 L 4.882812 -0.96875 C 5.046875 -0.527344 4.957031 -0.363281 4.222656 -0.308594 L 4.222656 0 C 5.210938 -0.03125 6.234375 -0.03125 7.222656 0 L 7.222656 -0.308594 C 6.453125 -0.363281 6.355469 -0.625 6.144531 -1.1875 Z M 2.230469 -2.59375 L 3.210938 -5.542969 L 4.289062 -2.59375 Z M 2.230469 -2.59375 "/></g></g></g><g fill="#00a8a8" fill-opacity="1"><g transform="translate(247.34793, 50.346281)"><g><path d="M 4.496094 -6.828125 L 4.496094 -6.519531 C 5.101562 -6.488281 5.410156 -6.3125 5.179688 -5.859375 L 3.890625 -3.386719 L 2.550781 -5.882812 C 2.34375 -6.277344 2.472656 -6.488281 3.066406 -6.519531 L 3.066406 -6.828125 C 2.101562 -6.804688 1.132812 -6.804688 0.164062 -6.828125 L 0.164062 -6.519531 C 0.746094 -6.488281 0.878906 -6.277344 1.089844 -5.894531 L 2.769531 -2.824219 L 2.769531 -0.980469 C 2.769531 -0.484375 2.5625 -0.351562 1.957031 -0.308594 L 1.957031 0 C 2.914062 -0.03125 3.914062 -0.03125 4.871094 0 L 4.871094 -0.320312 C 4.277344 -0.351562 4.066406 -0.484375 4.066406 -0.980469 L 4.066406 -2.914062 L 5.585938 -5.847656 C 5.816406 -6.289062 6.082031 -6.488281 6.695312 -6.519531 L 6.695312 -6.828125 C 5.96875 -6.804688 5.234375 -6.804688 4.496094 -6.828125 Z M 4.496094 -6.828125 "/></g></g></g></svg>