<svg id="shield-icon" xmlns="http://www.w3.org/2000/svg" width="17.947" height="22.645" viewBox="0 0 17.947 22.645">
  <g id="Group_7023" data-name="Group 7023">
    <path id="Path_12282" data-name="Path 12282" d="M8.973,1.742A11.09,11.09,0,0,1,5.481,4.119a17.826,17.826,0,0,1-4.3,1.192v6.54c0,4.825,3.6,7.91,7.8,9.541,4.2-1.631,7.8-4.716,7.8-9.541V5.31a17.819,17.819,0,0,1-4.3-1.192A11.1,11.1,0,0,1,8.973,1.742Zm-3.961,1.3A10.526,10.526,0,0,0,8.973,0a10.528,10.528,0,0,0,3.961,3.043A19.107,19.107,0,0,0,17.947,4.3V11.85c0,5.563-4.131,8.976-8.974,10.794C4.13,20.827,0,17.413,0,11.85V4.3A19.107,19.107,0,0,0,5.012,3.043Z" fill="#3a3a3a"/>
    <path id="Path_12283" data-name="Path 12283" d="M105.492,124.352h3.373v-1.5a1.686,1.686,0,1,0-3.373,0Zm4.185.01a.994.994,0,0,1,.85.981v3.622a.994.994,0,0,1-.991.991h-4.716a.994.994,0,0,1-.991-.991v-3.622a1,1,0,0,1,.85-.981v-1.514a2.5,2.5,0,1,1,5,0Zm-2.5,1.674a.751.751,0,0,1,.583,1.224.841.841,0,0,0-.2.552v.2a.263.263,0,0,1-.262.262h-.25a.263.263,0,0,1-.262-.262v-.2a.841.841,0,0,0-.2-.552.75.75,0,0,1,.583-1.224Z" transform="translate(-98.206 -113.831)" fill="#3a3a3a" fill-rule="evenodd"/>
  </g>
</svg>
