<svg xmlns="http://www.w3.org/2000/svg" xmlns:xlink="http://www.w3.org/1999/xlink" width="102" height="102" viewBox="0 0 102 102">
  <defs>
    <clipPath id="clip-path">
      <rect id="Rectangle_1843" data-name="Rectangle 1843" width="47.447" height="52.903" fill="#fff"/>
    </clipPath>
  </defs>
  <g id="thums-up-ty" transform="translate(-308 -2728)">
    <g id="Ellipse_32" data-name="Ellipse 32" transform="translate(308 2728)" fill="#cee" stroke="#16176e" stroke-width="0.5">
      <circle cx="51" cy="51" r="51" stroke="none"/>
      <circle cx="51" cy="51" r="50.75" fill="none"/>
    </g>
    <circle id="Ellipse_33" data-name="Ellipse 33" cx="49" cy="49" r="49" transform="translate(308 2730)" fill="#16176e"/>
    <g id="Group_8187" data-name="Group 8187" transform="translate(333.276 2747.758)">
      <g id="Group_8187-2" data-name="Group 8187" clip-path="url(#clip-path)">
        <path id="Path_26426" data-name="Path 26426" d="M.732,121.462a1.41,1.41,0,0,1-.733-1.4Q.024,108.02.011,95.983C.011,94.92.334,94.6,1.4,94.6h9.487a3.319,3.319,0,0,1,3.388,1.925c1.634-.556,3.32-1.073,4.963-1.7a20.321,20.321,0,0,0,6.575-3.882,8.552,8.552,0,0,0,3.023-5.472c.062-.58.045-1.169.051-1.754a4.128,4.128,0,0,1,8.253-.206,26.365,26.365,0,0,1-1.413,10.821,2.266,2.266,0,0,0-.053.269h.568c2.372,0,4.744-.012,7.116.005a4.13,4.13,0,0,1,2.2,7.6c-.243.158-.509.28-.821.449a4.244,4.244,0,0,1,.45,3.544,4.19,4.19,0,0,1-2.518,2.635,4.277,4.277,0,0,1,.454,3.569,4.175,4.175,0,0,1-2.48,2.616,11.871,11.871,0,0,1,.5,1.345,4.131,4.131,0,0,1-3,4.979c-.13.034-.256.082-.383.123H23.833a1.11,1.11,0,0,0-.246-.065,34.667,34.667,0,0,1-7.937-1.389c-.489-.13-.981-.253-1.474-.38a3.366,3.366,0,0,1-2.3,1.834ZM14.448,98.637v.56q0,8.5,0,17c0,.444-.133,1.013.087,1.3s.8.293,1.232.411a33.555,33.555,0,0,0,8.812,1.478c4.159.02,8.318.017,12.477.014a2.066,2.066,0,1,0-.019-4.129c-.928-.006-1.856,0-2.784,0-.76,0-1.227-.388-1.239-1.012-.013-.643.467-1.051,1.25-1.053,1.615,0,3.231.005,4.846,0a2.066,2.066,0,1,0,0-4.129c-.928-.007-1.856,0-2.784,0-.785,0-1.264-.408-1.253-1.051.011-.626.477-1.012,1.237-1.014,1.581,0,3.162,0,4.743,0a2.076,2.076,0,1,0-.025-4.132c-.928,0-1.856.008-2.784,0a1.036,1.036,0,0,1-1.108-1.038,1.047,1.047,0,0,1,1.124-1.024c.137,0,.275,0,.412,0,1.53,0,3.059.006,4.589,0a2.066,2.066,0,1,0-.057-4.128q-6.574-.008-13.147,0a1.039,1.039,0,1,1-.007-2.063c.928-.007,1.857-.029,2.784.01a.691.691,0,0,0,.782-.524,24.276,24.276,0,0,0,1.438-10.653,2.047,2.047,0,0,0-4.02-.319,4.261,4.261,0,0,0-.083,1.125,10.054,10.054,0,0,1-2.916,7.378,21.366,21.366,0,0,1-8.06,5.139c-1.787.7-3.632,1.242-5.528,1.881M2.11,96.664v22.729c3.111,0,6.186.008,9.26-.007a1.009,1.009,0,0,0,1.013-1.13q.006-10.228,0-20.455a1.041,1.041,0,0,0-1.168-1.136c-.739-.007-1.478,0-2.217,0H2.11" transform="translate(0 -68.559)" fill="#fff"/>
        <path id="Path_26427" data-name="Path 26427" d="M233.393,0a1.383,1.383,0,0,1,.733,1.4c-.036,1.39-.009,2.781-.012,4.172,0,.774-.419,1.26-1.056,1.243-.619-.016-1-.485-1-1.243,0-1.391.024-2.782-.012-4.172a1.38,1.38,0,0,1,.733-1.4Z" transform="translate(-200.072)" fill="#fff"/>
        <path id="Path_26428" data-name="Path 26428" d="M172.364,35.8a2.313,2.313,0,0,1-.606-.346c-.952-.92-1.886-1.859-2.812-2.806a1.032,1.032,0,1,1,1.455-1.457c.945.927,1.874,1.871,2.809,2.81a1.025,1.025,0,0,1,.254,1.184,1.041,1.041,0,0,1-1.1.615" transform="translate(-145.35 -26.576)" fill="#fff"/>
        <path id="Path_26429" data-name="Path 26429" d="M275.678,35.838a1.039,1.039,0,0,1-.8-1.816q1.388-1.385,2.77-2.775a1.518,1.518,0,0,1,.116-.1,1,1,0,0,1,1.4,0,.974.974,0,0,1,.049,1.434c-.975,1.018-1.977,2.011-2.989,2.992a1.605,1.605,0,0,1-.548.265" transform="translate(-236.704 -26.609)" fill="#fff"/>
        <path id="Path_26430" data-name="Path 26430" d="M145.417,94.486c.651,0,1.3-.007,1.953,0a1.036,1.036,0,1,1,0,2.062q-1.953.013-3.906,0a1.036,1.036,0,1,1,0-2.062c.651-.009,1.3,0,1.953,0" transform="translate(-122.72 -81.466)" fill="#fff"/>
        <path id="Path_26431" data-name="Path 26431" d="M295.075,96.545c-.634,0-1.268.007-1.9,0a1.036,1.036,0,1,1,0-2.062q1.953-.012,3.906,0a1.036,1.036,0,1,1,0,2.062c-.668.009-1.336,0-2,0" transform="translate(-251.805 -81.459)" fill="#fff"/>
        <path id="Path_26432" data-name="Path 26432" d="M59.957,269.133c0-1.289,0-2.578,0-3.867,0-.758.386-1.227,1.006-1.242.638-.015,1.054.469,1.054,1.246q0,3.918,0,7.837c0,.757-.388,1.228-1.007,1.242-.639.015-1.052-.468-1.054-1.246,0-1.323,0-2.647,0-3.97" transform="translate(-51.696 -227.65)" fill="#fff"/>
        <path id="Path_26433" data-name="Path 26433" d="M61,236.085a1.029,1.029,0,1,1,1.038-1.045A1.041,1.041,0,0,1,61,236.085" transform="translate(-51.721 -201.785)" fill="#fff"/>
      </g>
    </g>
  </g>
</svg>
