<?xml version="1.0" encoding="utf-8"?>
<!-- Generator: Adobe Illustrator 23.0.3, SVG Export Plug-In . SVG Version: 6.00 Build 0)  -->
<svg version="1.2" baseProfile="tiny" id="b5dc1ff5-0182-4621-94ad-8a07d6a20b7e"
	 xmlns="http://www.w3.org/2000/svg" xmlns:xlink="http://www.w3.org/1999/xlink" x="0px" y="0px" viewBox="0 0 594 186.4"
	 xml:space="preserve">
<path fill="#002677" d="M29.9,177.8L29.9,177.8c6,2.1,12.4,3.1,18.8,3.1c28.3,0,48-20.5,48-59.5V5.1L107.4,0v123.4
	c0,39.8-20.5,63-49.6,63C47.9,186.3,38.1,183.4,29.9,177.8z M17.6,166L17.6,166c6.5,2.2,13,3.6,18.8,3.6c23.8,0,39.6-14.9,39.6-48.7
	V14l10.6-5v112.9c0,35.3-17.9,53.3-42.7,53.3C34.7,175.2,25.3,171.8,17.6,166z M10.1,155.4L10.1,155.4c5.1,1.7,10.4,2.6,15.7,2.8
	c18.5,0,29.9-10.1,29.9-36.7V23l10.4-5v102c0,29.9-13.7,43.4-33.3,43.4C24.6,163.3,16.6,160.5,10.1,155.4z M45.9,124.4V27L0,47.7v79
	c0,15.1,9.5,25.2,23.5,25.2S45.9,141.6,45.9,124.4z"/>
<path fill="#002677" d="M166.4,26.9v36.3c0,13.4,7.9,23.9,23.1,23.9c13,0,22.8-9.6,22.8-24.2v-35c-0.1-3.9,2.9-7.1,6.8-7.2
	c0,0,0.1,0,0.1,0l1.4-0.1v-3.4h-22.8v3.4l1.5,0.1c3.9,0.1,6.9,3.3,6.8,7.2c0,0,0,0.1,0,0.1v33.9c0,11.1-5.8,17.8-14.8,17.8
	s-14.5-7.1-14.5-17.9V26.9c0-3.8,2.1-6,6.4-6.3l1.4-0.1v-3.4h-25.9v3.4l1.5,0.1C164.3,20.9,166.4,23,166.4,26.9z"/>
<path fill="#002677" d="M197.2,104.3l1.5,0.1c3.6,0.2,6.4,1.7,6.4,5.8v21.3h-25.6v-21.3c0-4.1,2.7-5.5,6.4-5.8l1.4-0.1v-3.4h-25.9
	v3.4l1.5,0.1c3.6,0.2,6.4,1.7,6.4,5.8V160c0,4.1-2.7,5.6-6.4,5.8l-1.5,0.1v3.4h25.9v-3.4l-1.4-0.1c-3.6-0.3-6.4-1.7-6.4-5.8v-23.3
	H205V160c0,4.1-2.7,5.6-6.4,5.8l-1.5,0.1v3.4h25.9v-3.4l-1.4-0.1c-3.6-0.3-6.4-1.7-6.4-5.8v-49.9c0-4.1,2.7-5.5,6.4-5.8l1.4-0.1
	v-3.4h-25.9V104.3z"/>
<path fill="#002677" d="M220.4,37.2v3.2l1.9,0.1c3,0.2,4.9,1.7,4.9,5.8v30.1c0,4.1-2.1,5.6-5.4,5.8l-1.5,0.1v3.3h23.2v-3.3l-1.4-0.1
	c-3.3-0.2-5.4-1.7-5.4-5.8v-16c0.2-11.7,5.3-18.8,11.2-18.8c4.6,0,7.6,3.1,7.6,9.2v25.6c0,4.1-2.1,5.6-5.4,5.8l-1.5,0.1v3.3h23.2
	v-3.3l-1.4-0.1c-3.3-0.2-5.4-1.7-5.4-5.8V49.7c0-7.6-4.7-14-14-14c-6.6,0-12.2,3.9-14.5,10.9V35.9L220.4,37.2z"/>
<path fill="#002677" d="M354.2,86.5c9.9,0,15.5-6.8,17.7-14.4l-4.2-1.2c-2,5.3-5.4,9.4-12.2,9.4c-7.9,0-13.3-7.5-13.3-19.5h30.4
	v-2.8c0-12.6-7.4-22.8-19.4-22.8c-12.8,0-21.3,12.2-21.3,25.6S340.1,86.5,354.2,86.5z M353.1,40.9c5.4,0,8.8,5,9.2,15.2h-19.9
	C343.4,46.6,347.3,40.9,353.1,40.9L353.1,40.9z"/>
<path fill="#002677" d="M306.1,74.6c0,7.6,4.6,11.9,11.9,11.9c6.9,0,11.4-5,13.4-12.1l-3.5-1c-1.4,4.1-3.6,6.7-6.8,6.7
	c-4.1,0-5.5-3-5.5-6.6V41.8h13.4v-5.1h-13.4V21.7h-4.9c-1.9,11.3-7.6,15.5-13.7,16.7v3.4h9L306.1,74.6z"/>
<path fill="#002677" d="M285.6,28c3.6-0.1,6.3-3.1,6.2-6.7c-0.1-3.4-2.8-6.1-6.2-6.2c-3.5,0-6.3,2.9-6.3,6.4
	C279.2,25,282,27.9,285.6,28C285.5,28,285.5,28,285.6,28z"/>
<path fill="#002677" d="M281.1,46.2v30.1c0,4.1-2.1,5.6-5.4,5.8l-1.5,0.1v3.3h23.2v-3.3l-1.4-0.1c-3.3-0.2-5.4-1.7-5.4-5.8V35.9
	l-16.9,1.3v3.2l2.5,0.1C279.2,40.6,281.1,42.1,281.1,46.2z"/>
<path fill="#002677" d="M397.5,86.5c6.5,0,11.4-3.3,13.6-9v8h16.3v-3.3l-1.4-0.1c-3.3-0.2-5.4-1.7-5.4-5.8V15.8l-16.6,1.5v3.2
	l2.1,0.1c3,0.1,4.9,1.7,4.9,5.8V44c-2.1-5.5-7.1-8.7-13.6-8.7c-12.8,0-20,12.2-20,25.6S384.7,86.5,397.5,86.5z M399.2,40.9
	c7.2,0,11.9,7.8,11.9,20s-4.7,20-11.9,20c-6.9,0-11.4-7.7-11.4-20S392.4,40.9,399.2,40.9z"/>
<path fill="#002677" d="M543.1,119.2c-5.7,0-10.6,3.7-12.7,10.4v-10l-16.4,1.3v3.2l2,0.1c3,0.2,4.9,1.7,4.9,5.8v30.1
	c0,4.1-2,5.6-5.4,5.8L514,166v3.3h23.2V166l-1.4-0.1c-3.3-0.2-5.4-1.7-5.4-5.8v-16.4c0.2-12.2,5.5-19.8,11.9-19.8
	c1.2-0.1,2.4,0.4,3.2,1.3c-1.7,0.9-2.8,2.7-2.7,4.6c0,2.9,2.3,5.2,5.2,5.2c2.8,0,5.2-2.4,5.2-5.7
	C553.2,123.1,548.6,119.2,543.1,119.2z"/>
<path fill="#002677" d="M574.6,119c-12.8,0-21.3,12.2-21.3,25.6s8.2,25.6,22.3,25.6c9.9,0,15.5-6.8,17.7-14.4l-4.2-1.2
	c-2,5.3-5.4,9.4-12.2,9.4c-7.9,0-13.3-7.5-13.3-19.5H594v-2.8C594,129.2,586.5,119,574.6,119z M563.7,139.8
	c1-9.5,4.9-15.3,10.8-15.3c5.4,0,8.8,5,9.2,15.3H563.7z"/>
<path fill="#002677" d="M505.6,161.2v-25.5c0-10.5-6.5-16.6-17.6-16.6c-9.5,0-17.9,6.3-17.9,13.4c-0.1,2.9,2.2,5.2,5.1,5.3
	s5.2-2.2,5.3-5.1c0-1.9-1-3.6-2.6-4.6c1.8-2.4,4.9-3.9,8.7-3.9c6,0,9.6,4.5,9.6,12v2.2l-14.5,6c-9.7,4-13,7.5-13,13.9
	c0,7.3,5.3,12,13.6,12c6.1,0,11.6-3.8,13.8-9.6v1.5c0,5,3.5,8,9.4,8c2.1,0,4.2-0.3,6.2-0.9V166C507.5,166.5,505.6,164.9,505.6,161.2
	z M496.1,150.1c-0.5,8.6-4.8,14.4-10.8,14.4c-4.3,0-7-2.9-7-7.4c0-4,2.1-7.1,6.3-8.9l11.6-5.2L496.1,150.1z"/>
<path fill="#002677" d="M368.4,157.2c-1.4,4.1-3.6,6.6-6.7,6.6c-4.1,0-5.5-3-5.5-6.6v-31.7h13.4v-5.1h-13.4v-15.1h-4.9
	c-1.9,11.3-7.6,15.5-13.7,16.7v3.4h9v32.8c0,7.6,4.6,11.9,11.9,11.9c6.8,0,11.3-5,13.4-12.1L368.4,157.2z"/>
<path fill="#002677" d="M306.4,161.2v-25.5c0-10.5-6.5-16.6-17.6-16.6c-9.5,0-17.9,6.3-17.9,13.4c-0.1,2.9,2.2,5.2,5.1,5.3
	s5.2-2.2,5.3-5.1c0-1.9-1-3.6-2.6-4.6c1.8-2.4,4.9-3.9,8.7-3.9c6,0,9.6,4.5,9.6,12v2.2l-14.5,6c-9.7,4-13,7.5-13,13.9
	c0,7.3,5.3,12,13.6,12c6.1,0,11.6-3.8,13.8-9.6v1.5c0,5,3.5,8,9.4,8c2.1,0,4.2-0.3,6.2-0.9V166C308.2,166.5,306.4,164.9,306.4,161.2
	z M296.8,150.1c-0.5,8.6-4.8,14.4-10.8,14.4c-4.3,0-7-2.9-7-7.4c0-4,2.1-7.1,6.3-8.9l11.6-5.2L296.8,150.1z"/>
<path fill="#002677" d="M449.2,164.1c-7.9,0-13.3-7.5-13.3-19.5c0-12.1,5.3-19.8,13.2-19.8c3.5,0,6.3,1.2,7.9,3.3
	c-1.5,1-2.4,2.7-2.4,4.5c0,2.9,2.3,5.2,5.2,5.2c2.9,0,5.2-2.3,5.2-5.7c0-5.9-5.9-13.1-16.3-13.1c-14.6,0-23,12.2-23,25.6
	s8.2,25.6,22.3,25.6c9.7,0,15.1-6.4,17.3-13.8l-4.2-1.3C459.2,160.2,455.9,164.1,449.2,164.1z"/>
<path fill="#002677" d="M331.1,160.1V99.6l-16.6,1.4v3.2l2.1,0.1c3,0.1,4.9,1.7,4.9,5.8v50c0,4.1-2,5.6-5.4,5.8l-1.5,0.1v3.3h23.2
	V166l-1.4-0.1C333.1,165.7,331.1,164.2,331.1,160.1z"/>
<path fill="#002677" d="M416.8,160.1v-26.7c0-7.6-4.7-14-14-14c-6.6,0-12.2,3.9-14.5,10.9V99.6l-16.6,1.4v3.2l2.1,0.1
	c3,0.1,4.9,1.7,4.9,5.8v50c0,4.1-2,5.6-5.4,5.8l-1.5,0.1v3.3H395V166l-1.4-0.1c-3.3-0.2-5.4-1.7-5.4-5.8v-16
	c0.2-11.7,5.3-18.8,11.2-18.8c4.6,0,7.6,3.1,7.6,9.2v25.6c0,4.1-2.1,5.6-5.4,5.8l-1.5,0.1v3.3h23.2V166l-1.4-0.1
	C418.8,165.7,416.8,164.2,416.8,160.1z"/>
<path fill="#002677" d="M246.3,119c-12.8,0-21.3,12.3-21.3,25.7s8.2,25.6,22.3,25.6c9.9,0,15.4-6.8,17.7-14.4l-4.2-1.2
	c-2,5.3-5.4,9.4-12.2,9.4c-7.9,0-13.3-7.5-13.3-19.5h30.4v-2.8C265.7,129.2,258.2,119,246.3,119z M235.5,139.8
	c1-9.5,4.9-15.3,10.8-15.3c5.4,0,8.8,5,9.2,15.3H235.5z"/>
</svg>
